<?xml version="1.0" encoding="UTF-8" standalone="no"?>
<svg
   xmlns:dc="http://purl.org/dc/elements/1.1/"
   xmlns:cc="http://creativecommons.org/ns#"
   xmlns:rdf="http://www.w3.org/1999/02/22-rdf-syntax-ns#"
   xmlns:svg="http://www.w3.org/2000/svg"
   xmlns="http://www.w3.org/2000/svg"
   xmlns:sodipodi="http://sodipodi.sourceforge.net/DTD/sodipodi-0.dtd"
   xmlns:inkscape="http://www.inkscape.org/namespaces/inkscape"
   width="297mm"
   height="60mm"
   viewBox="0 0 297 60"
   version="1.1"
   id="svg8"
   inkscape:version="1.0.2-2 (e86c870879, 2021-01-15)"
   sodipodi:docname="L3.svg">
  <defs
     id="defs2" />
  <sodipodi:namedview
     id="base"
     pagecolor="#ffffff"
     bordercolor="#666666"
     borderopacity="1.0"
     inkscape:pageopacity="0.0"
     inkscape:pageshadow="2"
     inkscape:zoom="0.49497475"
     inkscape:cx="797.88167"
     inkscape:cy="336.92133"
     inkscape:document-units="mm"
     inkscape:current-layer="layer1"
     inkscape:document-rotation="0"
     showgrid="false"
     inkscape:window-width="1920"
     inkscape:window-height="1057"
     inkscape:window-x="-8"
     inkscape:window-y="-8"
     inkscape:window-maximized="1" />
  <metadata
     id="metadata5">
    <rdf:RDF>
      <cc:Work
         rdf:about="">
        <dc:format>image/svg+xml</dc:format>
        <dc:type
           rdf:resource="http://purl.org/dc/dcmitype/StillImage" />
        <dc:title></dc:title>
      </cc:Work>
    </rdf:RDF>
  </metadata>
  <g
     inkscape:label="图层 1"
     inkscape:groupmode="layer"
     id="layer1">
    <path
       style="fill:#ddedff;fill-opacity:1;stroke:none;stroke-width:0.220229px;stroke-linecap:butt;stroke-linejoin:miter;stroke-opacity:1"
       d="M -8.9495953,2.112483 C -4.4160275,2.6299934 -1.0292687,4.3222947 3.3175822,4.244961 8.6531585,4.1500372 13.095819,2.5831977 25.094675,2.3576614 37.093531,2.1321251 40.135179,4.8463995 50.982814,4.7712298 62.271195,4.6930059 67.661737,2.5259142 92.866656,1.8779343 114.52426,1.3211504 117.25712,4.7350626 136.26804,8.3389356 c 11.92214,2.2600614 21.53835,3.1693264 39.57535,-1.9577596 12.24189,-3.479802 17.56954,-4.755549 38.01598,-4.1606649 12.66964,0.3686201 18.71213,3.546424 28.20707,3.6236722 9.87064,0.080305 16.74662,-1.2436185 34.56144,-2.0677703 13.35105,-0.6176483 17.21108,3.2307693 31.0262,2.2058168 1.44136,-0.1069353 2.74842,20.3847312 3.48753,34.7605822 0.39877,7.756255 0.63221,143.625208 0.63221,143.625208 l -326.870614,-2.6727 2.508548,-148.588395 z"
       id="path833"
       sodipodi:nodetypes="cszssssssssscccc" />
  </g>
</svg>
